<?xml version="1.0" encoding="UTF-8"?>
<!DOCTYPE svg PUBLIC "-//W3C//DTD SVG 1.1//EN" "http://www.w3.org/Graphics/SVG/1.1/DTD/svg11.dtd">
<!-- Creator: CorelDRAW 2018 (64 Bit) -->
<svg xmlns="http://www.w3.org/2000/svg" xml:space="preserve" width="210mm" height="297mm" version="1.1" style="shape-rendering:geometricPrecision; text-rendering:geometricPrecision; image-rendering:optimizeQuality; fill-rule:evenodd; clip-rule:evenodd"
viewBox="0 0 21000 29700"
 xmlns:xlink="http://www.w3.org/1999/xlink">
 <defs>
  <style type="text/css">
   <![CDATA[
    .fil0 {fill:black}
    .fil5 {fill:#0080C1}
    .fil6 {fill:#01A2E8}
    .fil2 {fill:#030303}
    .fil9 {fill:#050505}
    .fil1 {fill:#05ECF6}
    .fil10 {fill:#070707}
    .fil4 {fill:#3F47CC}
    .fil7 {fill:#7092BF}
    .fil3 {fill:#99D9E9}
    .fil8 {fill:#FEF202}
   ]]>
  </style>
 </defs>
 <g id="Camada_x0020_1">
  <metadata id="CorelCorpID_0Corel-Layer"/>
  <g id="_3214962233296">
   <path class="fil0" d="M14244.72 17152.43l78.48 107.02c330.27,736.46 -216.81,1580.39 -1052.26,1541.15 -524.95,-24.66 -903.68,-412.13 -998.93,-856.22 -22.76,-106.14 -12.21,-245.87 -45.11,-339.67 -78.49,-223.8 -273.77,-255.03 -510.72,-181.36 -67.91,114.19 -249.32,142.9 -90.06,745.48 72.09,272.77 184.02,462.14 329.2,650.13 275.95,357.34 716.24,626.18 1312.59,665.76 40.24,394.29 -310.08,779.76 -610.84,844.74 -47.87,-77.29 -82.72,-258.97 -126.07,-359.26 -485.19,-1122.59 -2092.69,-1391.24 -1944.49,-646.93 23.63,118.68 121.39,216.57 230.88,248.01 192.17,55.17 655.98,-17.05 989.73,488.8 310.06,469.96 233.73,1045.87 -197.8,1425.49 -430.5,378.71 -1057.56,309.74 -1432.43,-43.56 -423.73,-399.36 -335.28,-915.81 -335.28,-1616.27l0 -9813.11c0,-690.56 -101.73,-1262.61 420.44,-1549.49 543.85,-298.79 1105.83,40.1 1224.63,531.32 98.17,405.93 -133.84,805.76 -469.94,953.71 -171.57,75.51 -249.88,41.96 -419.31,81.79 -441.4,103.77 -388.76,978.07 641.2,561.27 342.51,-138.6 615.1,-393.26 777.44,-701.32 61.85,-117.36 87.83,-256.17 141.7,-355.87 289.13,-37.02 602.25,119.84 747.36,249.74 98.33,88.02 155.97,149.16 229.93,269.14 390.41,633.31 7.92,1423.46 -622.17,1602.08 -197.73,56.05 -617.39,-20.54 -645.04,355.07 -47.3,642.63 1120.65,363.31 1615.4,-172.59 88.61,-95.99 139.55,-186.53 230.02,-295.11 243.42,12.27 612.98,439.44 731.51,752.97 69.75,184.5 104.54,417.13 80.23,641.29 -20.95,193.1 -95.91,447.63 -197.22,556.82 -202.25,-22.5 -455.52,-123.13 -685.9,-75.36 -180.11,37.35 -349.46,269.62 -220.55,496.68 180.1,317.23 581.55,29.3 1123.93,451 660.83,513.81 760.83,1568.54 89.78,2135.4 -61.55,-23.75 -157.86,-145.51 -320.42,-252.66 -119.3,-78.63 -247.2,-147.02 -382.07,-194.88 -985.66,-349.77 -1064.58,273.03 -818.78,493.16 193.26,173.07 398.93,-26.89 860.01,291.86 69.38,47.95 261.79,211.3 270.93,313.78zm-5844.89 -5545.98l0.05 8161.68c0,299.6 31.27,882.59 -31.83,1144.84 -244.4,1015.68 -1635.28,1114.36 -2032.26,182.36 -255.1,-598.88 58.19,-1277.99 687.14,-1465.11 165.08,-49.12 354.56,-18.78 483.73,-96.09 287.23,-171.9 247.74,-876.86 -734.09,-539 -300.32,103.35 -546.39,263.46 -719.56,456.92 -374.92,375.87 -354.15,627.34 -462.92,873.37 -295.72,-28.21 -641.53,-450.57 -619.94,-826.14 92.23,-45.02 382.67,-30.82 726.61,-199.69 78.12,-38.35 129.73,-83.69 206.35,-114.23 174.54,-186.81 503.87,-319.08 695.29,-962.24 60,-201.59 133.66,-531.23 10.42,-702.61 -133.66,-185.89 -430.79,-191.73 -563.7,13.95 -109.02,168.71 31.62,732.5 -554.15,1097.49 -405.49,252.67 -901.41,219.84 -1255.27,-63.82 -774.4,-620.78 -393.55,-1837.08 566.77,-1932.58 144.76,-14.4 220.4,1.15 319.18,-81.45 70.54,-58.98 135.47,-159.07 123.31,-299.45 -48.95,-565.4 -1128.03,-240.62 -1517.31,153.17l-115.55 94.47c-819.6,-689.02 -515.82,-2133.65 637.62,-2380.15 267,-57.05 451.06,16.98 574.61,-208.52 115.56,-210.91 -22.54,-445.31 -223.82,-490.67 -241.59,-54.45 -547,85.41 -700.35,65.75 -307.25,-479.69 -232.48,-1231.29 182.61,-1641.89 95.86,-94.82 277.96,-281.42 458.52,-305.58 94.28,298.7 642.27,673.1 1008.71,776.35 1019.03,287.15 954.63,-482.45 577.89,-594.19 -85.47,-36.57 -316.77,-29.24 -472.7,-88.92 -1096.99,-419.79 -873.57,-2106.36 435.63,-2102.38 114.37,418.27 284.36,645.45 569.43,869.39 174.53,137.1 780.72,433.31 1076.16,259.15 148.13,-87.32 234.26,-294.31 119.12,-474.4 -129.79,-203.02 -270,-124.05 -516.87,-192.42 -334.2,-92.54 -614.25,-410.92 -604.54,-826.72 20.11,-860.75 1194.47,-1121.17 1582.59,-343.51 134.14,268.75 83.07,988.47 83.07,1342.68 0,480.06 -0.29,960.13 0.05,1440.19zm572.03 -5665.11c2.14,123.51 3.69,257.35 1.52,384.17 -1.77,104.23 -18.53,296.28 -14.69,363.11 42.41,61.43 65.62,190.41 -32.24,245.78 -26.08,14.76 -38.69,-8.55 -77.03,63.24 22.88,-15.04 8.82,-53.65 52.04,9.12 56.86,82.61 -73.91,77.68 -79.31,119.3 69.7,-16.9 53,-44 124.31,-72.9l0.01 1501.64c-88.08,-128.16 -139.25,-256.03 -243.84,-367.76 -923.58,-986.65 -2375.54,-445.3 -2611.44,657.83 -596.5,3.26 -1089.26,262.33 -1361.5,575.94 -440.69,507.68 -455.65,856.37 -447.1,1455.99 -53.16,41.02 -125.78,65.83 -186.81,99.89 -177.35,98.97 -338.79,217.29 -471.25,354.22 -533.78,551.78 -744.9,1327.74 -493.7,2102.09 40.87,126 140.29,294.03 158.93,381.97 -110.99,105.3 -198.85,164.35 -317.78,300.99 -661.65,760.17 -681.37,1919.47 -19.41,2682.83l293.77 300.02c-65.75,295.48 -129.23,433.49 -96.8,788.16 53.84,589.01 382.5,1052.08 859.83,1348.59 91.63,56.93 201.14,79.32 278.13,148.49 -1.07,758.58 363.99,1333.15 1030.4,1576.28 95.15,34.7 209.03,49.34 282.16,85.46 25.9,55.96 102.76,276.29 100.27,329.44 17.56,17.02 12.6,10.41 30.3,36.16 67.63,98.37 61.18,146.26 199.63,320.68 248.4,312.96 577.41,540.14 961.56,631.51 18.29,4.35 45.87,9.84 62.18,15.55 53.34,18.66 22.3,1.88 55.96,26.73 102.01,-15.81 285.91,18.33 421.96,9.36 609.86,-40.19 864.57,-329.21 954.32,-337.77 55.89,-91.84 329.82,-245.16 523.14,-662.56l118.18 -284.23c77.55,69.32 80.43,80.21 225.93,83.92 76.11,216.75 149.23,348.86 272.4,513.8 117.18,156.9 203.37,227.42 346.74,343.6l61.57 64.65c107.41,12.45 317.16,224.09 804.96,277.28 749.62,81.73 1452.46,-333.51 1762.69,-975.91 51.68,-107.02 104.07,-313.68 148.17,-391.09 90,-36.41 204.14,-51.16 296.24,-85.67 83.52,-31.3 179.39,-81.71 246.1,-119.56 503.18,-285.46 779.9,-823.52 762.32,-1468.94 605.85,-195.36 1099.37,-840.42 1142.31,-1505.06 29.9,-462.7 -49.49,-476.33 -96.65,-768.87 60.07,-64.31 104.27,-94.81 159.25,-147.73 56.65,-54.54 93.63,-102.22 145.4,-161.13 642.25,-730.68 636.42,-1903.64 -41.64,-2681.66 -105.19,-120.69 -203.52,-182.86 -309.1,-293.32 32.51,-129.79 228.68,-383.74 258.76,-863.49 22.61,-360.83 -33.64,-667.98 -154.65,-962.94 -330.55,-805.78 -902.16,-949.66 -1097.28,-1111.74 43.65,-678 -100.01,-1069.51 -448.59,-1450.62 -248.42,-271.59 -539.3,-449.87 -923.42,-537.12 -157.51,-35.77 -283.65,-23.81 -431.3,-50.63 -124.5,-277.97 -130.57,-466.34 -448.92,-758.06 -619.5,-567.66 -1528.19,-537.82 -2116.84,57.93 -121.01,122.48 -145.82,191.1 -255.26,334.24l-4.19 -860.47c-30.53,-35.02 -11.93,-3.68 -28.89,-56.2 -19.4,-60.07 -5,-338.24 -7.85,-423.34 -2.51,-74.51 -11.61,-68.25 6.96,-92.23 -4.66,-3.58 -10.87,-7.19 -15,-9.26 -75.92,-38.01 -46.01,18.8 -67.55,-28.02 -3.61,-7.84 -12.67,-2.97 -18.68,-5.38 32.67,-78.04 7.52,-82.28 3.49,-98.69 -10.07,-40.98 -24.94,3.39 -8.04,-60.18 17.48,-65.79 20.26,-16.43 70.91,-69.47 0.22,-63.85 -33.07,-104.19 -43.75,-179.32 -9.19,-64.58 -5.16,-158.3 -4.93,-226.05 0.51,-144.44 -4.32,-300.51 2.42,-441.79 -68.12,-13.28 -17.64,5.6 -60.81,-26.05 -85.6,-62.75 59.98,42.41 -18.65,-24.18 -47.7,-40.41 3.17,-22.88 -82.59,-20.12l29.73 -67.45c0.18,-1.58 2.28,-1.68 2.21,-2.9 -27.36,-1.56 -29.34,4.29 -59.71,-17.23l-42.55 -51.84 158.89 -11.66 -189.35 -3.76c-11.79,30.16 16.89,33.41 34.7,76.52l5.03 24.23c31.61,138.5 1.14,112.02 -26.69,143.64z"/>
   <path class="fil1" d="M10697.91 15616.08c348.66,-121.68 756.67,206.27 876.6,376.06 152.35,215.69 331.37,754.33 -42.47,884.27 -193.47,67.25 -375.91,-48.64 -430.53,-198.16 -61.45,-168.23 -1.27,-338.01 -241.3,-392.06 -118.42,-26.66 -156.08,1 -255.96,-73.04 -231.71,-171.77 -179.22,-501.84 93.66,-597.07zm992.73 -2779.67c858.18,-109.29 1543.06,527.22 1637.32,1267.46 33.92,266.33 -21.15,455.67 -229.69,516.22 -200.35,58.18 -393.99,-69.82 -431.35,-257.65 -57.77,-290.41 -5.14,-334.48 -174.91,-555.21 -378.25,-491.83 -1169.56,-370.27 -1373.37,233.75 -77.25,228.92 2.74,421.79 -206.54,545.47 -183.68,108.56 -397.8,26.07 -479.64,-140.49 -179.99,-366.26 204.05,-1475.32 1258.18,-1609.55zm25.54 4586.94c-34.96,-94.31 -34.41,-56.04 19.11,-74.89 -40.76,-32.98 -59.29,-46.66 -76.72,-95.92 140.61,64.15 185.16,25.95 345.57,31.26 677.17,22.42 1543.7,6.95 2227.63,6.95 -7.01,-75.7 -16.41,-51.75 12.95,-138.32 -9.14,-102.48 -201.55,-265.83 -270.93,-313.78 -461.08,-318.75 -666.75,-118.79 -860.01,-291.86 -245.8,-220.13 -166.88,-842.93 818.78,-493.16 134.87,47.86 262.77,116.25 382.07,194.88 162.56,107.15 258.87,228.91 320.42,252.66 671.05,-566.86 571.05,-1621.59 -89.78,-2135.4 -542.38,-421.7 -943.83,-133.77 -1123.93,-451 -128.91,-227.06 40.44,-459.33 220.55,-496.68 230.38,-47.77 483.65,52.86 685.9,75.36 101.31,-109.19 176.27,-363.72 197.22,-556.82 24.31,-224.16 -10.48,-456.79 -80.23,-641.29 -118.53,-313.53 -488.09,-740.7 -731.51,-752.97 -90.47,108.58 -141.41,199.12 -230.02,295.11 -494.75,535.9 -1662.7,815.22 -1615.4,172.59 27.65,-375.61 447.31,-299.02 645.04,-355.07 630.09,-178.62 1012.58,-968.77 622.17,-1602.08 -73.96,-119.98 -131.6,-181.12 -229.93,-269.14 -145.11,-129.9 -458.23,-286.76 -747.36,-249.74 -53.87,99.7 -79.85,238.51 -141.7,355.87 -162.34,308.06 -434.93,562.72 -777.44,701.32 -1029.96,416.8 -1082.6,-457.5 -641.2,-561.27 169.43,-39.83 247.74,-6.28 419.31,-81.79 336.1,-147.95 568.11,-547.78 469.94,-953.71 -118.8,-491.22 -680.78,-830.11 -1224.63,-531.32 -522.17,286.88 -420.44,858.93 -420.44,1549.49l0 9813.11c0,700.46 -88.45,1216.91 335.28,1616.27 374.87,353.3 1001.93,422.27 1432.43,43.56 431.53,-379.62 507.86,-955.53 197.8,-1425.49 -333.75,-505.85 -797.56,-433.63 -989.73,-488.8 -109.49,-31.44 -207.25,-129.33 -230.88,-248.01 -148.2,-744.31 1459.3,-475.66 1944.49,646.93 43.35,100.29 78.2,281.97 126.07,359.26 300.76,-64.98 651.08,-450.45 610.84,-844.74 -596.35,-39.58 -1036.64,-308.42 -1312.59,-665.76 -145.18,-187.99 -257.11,-377.36 -329.2,-650.13 -159.26,-602.58 22.15,-631.29 90.06,-745.48z"/>
   <path class="fil1" d="M7251.43 15622.23c230.98,-56.3 370.04,-20.65 474.09,127.26 114.5,162.79 48.9,359.62 -70.96,456.54 -142.3,115.06 -331.84,14.98 -445.25,206.29 -102.28,172.54 -2.3,310.88 -201.82,433.95 -183.43,113.15 -378.68,21.06 -465.54,-104.66 -146.01,-211.36 -29.42,-939.23 709.48,-1119.38zm-1004.63 -2792.69c1344.96,-154.45 2023.16,1665.68 1328.4,1798.07 -211.24,40.25 -379.6,-101.83 -404.01,-298.04 -32.31,-259.69 -46.26,-384.23 -188.86,-543.61 -453.54,-506.96 -1197.2,-291.85 -1366.26,287.23 -67.25,230.36 19.83,394.53 -208.99,519.07 -184.16,100.24 -399.4,10.84 -472.1,-159.35 -170.53,-399.27 232.75,-1479.46 1311.82,-1603.37zm-343.69 6355.82c108.29,63.98 -77.56,36.82 71.06,64.37l78.85 -4.5c125.03,31.58 -13.04,103.15 -59.55,177.23 35.63,42.66 -53.71,48.15 59.54,29.59 173.17,-193.46 419.24,-353.57 719.56,-456.92 981.83,-337.86 1021.32,367.1 734.09,539 -129.17,77.31 -318.65,46.97 -483.73,96.09 -628.95,187.12 -942.24,866.23 -687.14,1465.11 396.98,932 1787.86,833.32 2032.26,-182.36 63.1,-262.25 31.83,-845.24 31.83,-1144.84l-0.05 -8161.68 -2176.01 0c5.27,-9.61 -11.33,-36.43 15.01,-4.04l14.9 35.39c2.04,-5.2 6.01,17.38 8.4,26.25 -81.98,-21.45 -247.67,25.89 -134.24,59.34 376.74,111.74 441.14,881.34 -577.89,594.19 -366.44,-103.25 -914.43,-477.65 -1008.71,-776.35 -180.56,24.16 -362.66,210.76 -458.52,305.58 -415.09,410.6 -489.86,1162.2 -182.61,1641.89 153.35,19.66 458.76,-120.2 700.35,-65.75 201.28,45.36 339.38,279.76 223.82,490.67 -123.55,225.5 -307.61,151.47 -574.61,208.52 -1153.44,246.5 -1457.22,1691.13 -637.62,2380.15l115.55 -94.47c389.28,-393.79 1468.36,-718.57 1517.31,-153.17 12.16,140.38 -52.77,240.47 -123.31,299.45 -98.78,82.6 -174.42,67.05 -319.18,81.45 -960.32,95.5 -1341.17,1311.8 -566.77,1932.58 353.86,283.66 849.78,316.49 1255.27,63.82 585.77,-364.99 445.13,-928.78 554.15,-1097.49 132.91,-205.68 430.04,-199.84 563.7,-13.95 123.24,171.38 49.58,501.02 -10.42,702.61 -191.42,643.16 -520.75,775.43 -695.29,962.24z"/>
   <path class="fil1" d="M11464.32 5230.8l61.39 -9.75c-0.01,11.09 -18.53,56.31 38.99,60.18 60.84,4.1 37.51,5.02 45.81,-69.44l47.96 0 8200 0 0 -1766.84 -10354.1 0c83.51,75.35 682.95,322.08 489.37,938.03 82.96,-16.26 523.33,-312.55 1047.9,-14.45 275.07,156.33 482,432.69 422.68,862.27z"/>
   <path class="fil1" d="M15211.16 22841.11c40.37,90.6 190.09,562.63 194.13,637.74l-98.1 27.95c-37.48,-49.34 -198.98,-555.28 -210.17,-648.03l114.14 -17.66zm339.94 454.78c102.36,-10.81 336.31,-3.51 293.56,-141.25 -29.89,-96.31 -235.99,-58.78 -330.49,-98.48 -160.02,-67.21 -209.94,-393.81 255.27,-391.92 -0.65,142.81 15.4,84.13 -125.56,109.84 -84.95,15.51 -105.12,36.95 -123.86,105.06 85.38,173.49 408.9,2.63 446.69,250.5 32.3,211.87 -218.91,286.73 -418.99,255.02l3.38 -88.77zm1938.99 -1286.3c49.14,59.86 88.91,71.33 137.97,142.36 31.46,45.53 69.32,119.35 81.02,190.57 79.91,486.35 -747.55,577.6 -647.29,-154.62l-142.53 3.38c-81.15,9.55 -89.03,3.63 -114.09,54.13l-38.5 -57.51c-51.85,126.53 -38.45,31.23 -115.13,95.38 237.05,-30.27 228.28,53.64 296.23,222.09 39.16,97.1 123.5,280.32 129.5,372.33l-111.32 28.56c-44.15,-131.31 -134.5,-382.43 -200.04,-504.47 -101.56,-17.8 -145.08,10.51 -202.29,63.32 -57.97,53.51 -72.98,85.39 -37.76,173.16 42.26,105.31 133.75,297.01 146.77,395.39l-98 33.4c-80.87,-87.9 -143.69,-395.03 -227.71,-512.41 -148.3,-2.74 -169.09,63.71 -252,128.57 9.29,157.12 142.99,341.28 169.92,508.08l-113.61 33.88 -225.91 -584.69c-9.32,-115.2 80.3,-40.63 137.05,-21.83 21.91,-63.84 9.3,-46.89 64.92,-94.92l-192.52 -37.47c-40.15,-0.37 25.7,-5.98 -51,7.82 -181.66,32.67 -536.56,20.76 -721.17,10.19 -41.58,-2.39 -94.61,-18.4 -143.38,-28.32 9.27,69.72 -19.61,23.4 19.21,82.3 111.92,2.46 130.08,12.49 115.36,133.79 -70.7,29.75 -89.36,37.4 -151.7,-24.25 -112.91,0 -396.18,-40.61 -482.16,19.2l55.23 43.82c3.27,2.52 8.46,5.35 11.53,7.93 43.02,36.1 14.13,-31.97 39.83,64.33 1.39,-0.93 35.2,-22.19 40.39,-25.08l83.9 183.58c85.75,-10.85 140.54,-48.64 198.62,-24.84 29.98,100.65 -59.95,90.85 -159.22,116.6 15.53,111.08 90.71,389.4 152.1,455.98 132.04,16.67 80.81,-35.56 185.27,-34.79 32.47,92.21 0.26,124.77 -116.39,147.43 -250.34,48.62 -245.31,-233.25 -339.21,-512.38 -69.58,-27.23 -63.97,45.31 -104.46,-30.17 -34.21,-63.79 20.27,-54.4 64.17,-84.85l-14.85 -164.56 -30.53 50.66c-31.69,67.42 1.59,64.79 -56.07,72.45l-144.74 2.93c-0.96,5.64 0.26,13.22 0.51,17.12 4.15,63.41 15.22,57.45 -0.51,102.23 50.77,34.95 12.54,-39.7 54.32,77.89 39.91,112.3 152.82,509.46 130.62,580.97l-89.02 14.5c-39.81,-63.56 -179.01,-571.03 -173.4,-652.91 8.7,-9.47 24.03,-26.98 32.37,-38.38 3.81,-5.21 9.54,-8.37 12.49,-20.66 3.26,-13.56 8.71,-15.49 13.23,-23.14 -165.44,18.67 -113.27,85.35 -217.47,128.49l6.74 101.75c-73.56,28.91 -399.07,-26.88 -281.9,339.76 101.55,317.77 347.95,118.18 409.36,107.44l33.26 69.93c-205.09,230.96 -736.84,95.38 -540.57,-487.56 -37.91,-42.47 36.07,3.76 -43.06,-29.37 -4.74,2.03 -10.8,6.49 -13.37,7.81l-30.9 15.1c-1.15,0.3 -5.61,0.58 -6.65,0.68l-82.56 -6.78c-96.02,-7.55 27.6,29.96 -96.86,-16.81l-43.18 70.87c3.44,4.04 9,4.53 10.76,11.71l40.97 43.16c66.2,74.33 67.86,139.79 88.68,238.67 19.39,92.1 67.65,268.78 64.45,354.04l-45.72 4.23c-3.44,-0.59 -10.02,-1.12 -13.65,-2.18l-64 -52.69c-50.02,42.54 -111.67,123.57 -213.42,140.58 -270.41,45.2 -406.64,-352.45 136.07,-460.51 -40.83,-315.2 -245.58,-100.95 -361.04,-63.37l-43.43 -69.88c72.4,-77.45 111.82,-75.59 159.04,-124.02 -38.3,-10.14 -42.37,-34.13 -50.35,-41.03 -53.71,-46.48 -33.54,-25.44 -103.31,-21.23 -368.96,22.32 -957.97,9.59 -1347.91,9.87 -153.35,0.11 -353.94,-35.65 -443.19,2.52l-36.82 22.74c81.22,-0.93 173.19,-8.47 224.42,32.45l-16.69 81.79c-198.96,5.75 -348.07,-9.89 -456.46,110.81 -92.03,102.47 -123.38,295.39 -82.98,465.79 67.14,283.17 322.68,324.37 553.61,215.17 110.96,-52.48 110.36,-75.69 120.63,75.49 25.53,-9.67 31.63,-5.88 36.61,-6.67 4.98,-0.79 20.12,-2.9 25.44,-3.69 19.73,-2.96 28.57,-4.58 60.44,-9.66 -125.54,-277.74 25.54,-370.57 333.93,-419.59 -0.07,-315.27 -278.84,-103.82 -354.82,-88.42 -47,-96.38 -18.02,-101.63 65.74,-141.19 398.88,-188.4 404.05,138.02 427.97,263.66 40.54,18.1 27.82,4.54 41.56,32.52 72.99,-44.64 90.79,-51.09 95.92,-134.33 0.29,98.31 -12.85,-5.59 34.91,38.31l-44.79 -289.71c74.03,-4.6 27.91,-7.88 76.73,8.78l75.03 40.51c92.45,-168.32 425.08,-209.97 508.07,128.54 79.59,324.67 -127.1,473.98 -418.97,472.89l27.94 161.51c50.23,28.76 11.48,8.56 67.54,24.84l76.82 -163.09 7143.79 0 0 -2304.64 -2273.94 -3.7c-4.11,0.75 -9.33,1.93 -13.24,3.09l-93.99 58.32 12.79 52.23z"/>
   <path class="fil1" d="M6127.89 11723.39c-113.43,-33.45 52.26,-80.79 134.24,-59.34 -2.39,-8.87 -6.36,-31.45 -8.4,-26.25l-14.9 -35.39c-26.34,-32.39 -9.74,-5.57 -15.01,4.04l2176.01 0c-0.34,-480.06 -0.05,-960.13 -0.05,-1440.19 0,-354.21 51.07,-1073.93 -83.07,-1342.68 -388.12,-777.66 -1562.48,-517.24 -1582.59,343.51 -9.71,415.8 270.34,734.18 604.54,826.72 246.87,68.37 387.08,-10.6 516.87,192.42 115.14,180.09 29.01,387.08 -119.12,474.4 -295.44,174.16 -901.63,-122.05 -1076.16,-259.15 -285.07,-223.94 -455.06,-451.12 -569.43,-869.39 -1309.2,-3.98 -1532.62,1682.59 -435.63,2102.38 155.93,59.68 387.23,52.35 472.7,88.92z"/>
   <path class="fil1" d="M6698.19 5192.4c-36.58,-598.18 444.17,-935.04 946.69,-933.18 268.98,1 322.44,71.69 518.33,136.54 -132.2,-720.66 365.56,-833.67 494.4,-950.81l-5333.65 0 0 1017.8c-0.03,431.46 -113.88,316.34 673.02,325.79 119.34,1.44 185.51,20.55 325.5,20.03l1766.82 -0.06c0,493.49 -76,397.63 347.19,401.76l139.91 27.29c28.67,6.57 26.67,-6.54 54.36,15.79 71.38,57.57 -62.08,34.86 15.54,15.96l0.09 -134.43c25.28,69.4 -11.81,26.12 51.8,57.52z"/>
   <path class="fil1" d="M893.69 21627.62c87.71,9.47 35.46,1.28 116.32,33.36 16.54,104.12 -310.2,690.01 -353.98,851.42l389.08 168.75 -26.38 101.87c90.41,121.64 -77.69,3.96 30.37,118.3l159.28 71.32 40.44 -46.3c-201.19,-276.83 -97.27,-123.76 100.39,-723.06l108.35 42.13c-13.69,151.01 -216.08,430.87 -169.1,554.61 61.87,61.22 166.98,77.2 271.76,49.23 46.71,-22.66 191.49,-405.58 210.87,-472.03l121.97 40.9 -148.16 384.1c65.09,-21.81 24,7.14 61.96,-38.31l20.58 43.25c1.93,0.33 10.72,-4.55 12.59,-4.35 0.35,0.04 3.12,0.89 3.52,1l106.7 58.41 95.56 -251.94c-46.78,-81.96 -93.81,-38.26 -59.27,-105.58 27.35,-53.3 36.71,-22.34 107.78,-9.64 32.65,-123.69 43.88,-139.7 170.63,-166.06 2.41,76.83 -35.14,126.9 -58.09,213.23l158.76 56.18 2.73 69.39c30.2,-36.93 45.1,52.41 36.73,-83.66 -0.2,-3.3 -0.23,-9.74 -0.71,-13.42l-6.87 -27.61c-28.33,-112.58 -14.43,-29.46 4.77,-163.18l4282.44 0c3.81,3.98 8.87,8.91 11.57,11.83l32.27 35.73c2.96,4.03 6.3,8.53 8.92,12.53 29.91,45.55 8.09,-16.78 24.14,54.95l115.13 -28.76c6.92,-44.67 33.6,8.5 -5.57,-31.92 -40.03,-41.3 -29.24,1.66 -32.84,3.07 91.19,-10.3 79.72,-7.55 171.63,-31.5 -33.66,-24.85 -2.62,-8.07 -55.96,-26.73 -16.31,-5.71 -43.89,-11.2 -62.18,-15.55 -384.15,-91.37 -713.16,-318.55 -961.56,-631.51 -138.45,-174.42 -132,-222.31 -199.63,-320.68 -17.7,-25.75 -12.74,-19.14 -30.3,-36.16 -26.05,89.64 9.31,24.33 -17.67,85.86 -21.18,48.32 -67.39,15.61 -15.76,16.27l35.89 60.91c1.85,1.69 9.32,11.13 10.72,7.87 1.44,-3.32 9.1,3.84 11.01,7.94 -107.44,-1.33 -4.69,16.37 -134.28,36.4l-1075.55 1.91c-456.73,0 -3060.63,21.88 -3360.87,-7.98l-270.16 -30.1 10.03 73.31z"/>
   <path class="fil2" d="M7625.68 5711.32c-224.84,-0.34 -451.46,-90.36 -571.81,-196.67 -566.98,-500.84 -7.8,-1197.67 830.17,-1041.49 140.19,26.13 157.64,61.6 251.97,132.2 84.31,63.1 138.61,101.09 203.02,180.93l346.42 433.69 -93 267.9c-37.95,32.69 -776.75,223.73 -966.77,223.44zm1935.94 -244.67c-51,-374.43 -231.68,-74.16 93.71,-491.72 90.82,-116.55 259.68,-297.17 380.84,-386.96 361.54,-267.93 892.77,-168.65 1116.97,91.98 115.88,134.69 180.56,390.16 101.85,588.19 -71.99,181.14 -212.53,284.52 -399.35,369.85 -343.68,156.96 -985.57,-103.32 -1294.02,-171.34zm-690.72 -409.53c-113.63,-215.05 -561.08,-542.96 -574.07,-863.61 -14.79,-365.01 395.09,-642.45 788.76,-634.98 385.1,7.32 800.97,261.91 767.52,653.59 -22.19,259.81 -415,650.09 -570.68,846.99l-411.53 -1.99zm-2172.71 135.28c101.96,419.51 399.01,682.67 890.68,696.63 -77.68,101.5 -292.51,197.02 -329.92,532.42 -86.61,776.55 930.12,1132.89 1498.11,767.47 1.22,-0.79 33.79,-25.59 34.4,-26.17 31.12,-29.45 4.36,3.02 30.69,-36.69 5.4,-41.62 136.17,-36.69 79.31,-119.3 -43.22,-62.77 -29.16,-24.16 -52.04,-9.12 38.34,-71.79 50.95,-48.48 77.03,-63.24 97.86,-55.37 74.65,-184.35 32.24,-245.78 -57.74,63.54 -83.17,215.83 -301.48,341.46 -513.36,295.43 -1169.39,14.55 -1222.34,-456.9 -70.19,-624.91 671.52,-700.24 1101.09,-815.79 287.77,-77.41 145.74,-4.19 352.42,73.9 92.78,35.07 73.51,13.39 83.48,110.05 27.83,-31.62 58.3,-5.14 26.69,-143.64l-5.03 -24.23c-17.81,-43.11 -46.49,-46.36 -34.7,-76.52 -66.66,-62.47 -207.5,-90.05 -147.55,-299.22 66.81,-233.11 543.87,-205.16 564.39,44.51 14.7,178.84 -89.81,219.37 -227.49,258.47l-158.89 11.66 42.55 51.84c30.37,21.52 32.35,15.67 59.71,17.23 0.07,1.22 -2.03,1.32 -2.21,2.9l-29.73 67.45c85.76,-2.76 34.89,-20.29 82.59,20.12 78.63,66.59 -66.95,-38.57 18.65,24.18 43.17,31.65 -7.31,12.77 60.81,26.05 -4.88,-126.69 54.8,-48.1 177.55,-146.42 80.23,-64.26 66.05,-120.14 220.96,-62.71 151.22,56.05 306.61,100.54 478.33,157.25 308.72,101.96 636.75,232.47 657.9,608.9 34.66,616.98 -967.93,966.85 -1438.65,344.32l-49.83 -54.18c-50.65,53.04 -53.43,3.68 -70.91,69.47 -16.9,63.57 -2.03,19.2 8.04,60.18 4.03,16.41 29.18,20.65 -3.49,98.69 6.01,2.41 15.07,-2.46 18.68,5.38 21.54,46.82 -8.37,-9.99 67.55,28.02 4.13,2.07 10.34,5.68 15,9.26 -18.57,23.98 -9.47,17.72 -6.96,92.23 2.85,85.1 -11.55,363.27 7.85,423.34 16.96,52.52 -1.64,21.18 28.89,56.2l-1.63 -489.22c112.51,49.34 163.87,103.59 304.14,150.47 612.02,204.53 1344.75,-192.74 1297.41,-833.4 -8.79,-118.94 -57.78,-246.11 -115.51,-329.72 -73.73,-106.78 -98.93,-111.25 -169.26,-175.15 -58.42,-53.07 -29.4,-12.28 -53.02,-66.38 317.92,-9.61 597.31,-143.91 755.43,-389.58 54.23,-84.26 72.25,-169.28 114.2,-248.29 59.32,-429.58 -147.61,-705.94 -422.68,-862.27 -524.57,-298.1 -964.94,-1.81 -1047.9,14.45 193.58,-615.95 -405.86,-862.68 -489.37,-938.03l-846.76 0c-128.84,117.14 -626.6,230.15 -494.4,950.81 -195.89,-64.85 -249.35,-135.54 -518.33,-136.54 -502.52,-1.86 -983.27,335 -946.69,933.18z"/>
   <path class="fil1" d="M11716.18 17423.35c236.95,-73.67 432.23,-42.44 510.72,181.36 32.9,93.8 22.35,233.53 45.11,339.67 95.25,444.09 473.98,831.56 998.93,856.22 835.45,39.24 1382.53,-804.69 1052.26,-1541.15l-78.48 -107.02c-29.36,86.57 -19.96,62.62 -12.95,138.32 -683.93,0 -1550.46,15.47 -2227.63,-6.95 -160.41,-5.31 -204.96,32.89 -345.57,-31.26 17.43,49.26 35.96,62.94 76.72,95.92 -53.52,18.85 -54.07,-19.42 -19.11,74.89z"/>
   <path class="fil0" d="M11690.64 12836.41c-1054.13,134.23 -1438.17,1243.29 -1258.18,1609.55 81.84,166.56 295.96,249.05 479.64,140.49 209.28,-123.68 129.29,-316.55 206.54,-545.47 203.81,-604.02 995.12,-725.58 1373.37,-233.75 169.77,220.73 117.14,264.8 174.91,555.21 37.36,187.83 231,315.83 431.35,257.65 208.54,-60.55 263.61,-249.89 229.69,-516.22 -94.26,-740.24 -779.14,-1376.75 -1637.32,-1267.46z"/>
   <path class="fil0" d="M6246.8 12829.54c-1079.07,123.91 -1482.35,1204.1 -1311.82,1603.37 72.7,170.19 287.94,259.59 472.1,159.35 228.82,-124.54 141.74,-288.71 208.99,-519.07 169.06,-579.08 912.72,-794.19 1366.26,-287.23 142.6,159.38 156.55,283.92 188.86,543.61 24.41,196.21 192.77,338.29 404.01,298.04 694.76,-132.39 16.56,-1952.52 -1328.4,-1798.07z"/>
   <path class="fil3" d="M7625.68 5711.32c190.02,0.29 928.82,-190.75 966.77,-223.44l93 -267.9 -346.42 -433.69c-64.41,-79.84 -118.71,-117.83 -203.02,-180.93 -94.33,-70.6 -111.78,-106.07 -251.97,-132.2 -837.97,-156.18 -1397.15,540.65 -830.17,1041.49 120.35,106.31 346.97,196.33 571.81,196.67z"/>
   <path class="fil4" d="M8958.69 6688.62c-3.84,-66.83 12.92,-258.88 14.69,-363.11 2.17,-126.82 0.62,-260.66 -1.52,-384.17 -9.97,-96.66 9.3,-74.98 -83.48,-110.05 -206.68,-78.09 -64.65,-151.31 -352.42,-73.9 -429.57,115.55 -1171.28,190.88 -1101.09,815.79 52.95,471.45 708.98,752.33 1222.34,456.9 218.31,-125.63 243.74,-277.92 301.48,-341.46z"/>
   <path class="fil5" d="M9221.65 5922.14c-6.74,141.28 -1.91,297.35 -2.42,441.79 -0.23,67.75 -4.26,161.47 4.93,226.05 10.68,75.13 43.97,115.47 43.75,179.32l49.83 54.18c470.72,622.53 1473.31,272.66 1438.65,-344.32 -21.15,-376.43 -349.18,-506.94 -657.9,-608.9 -171.72,-56.71 -327.11,-101.2 -478.33,-157.25 -154.91,-57.43 -140.73,-1.55 -220.96,62.71 -122.75,98.32 -182.43,19.73 -177.55,146.42z"/>
   <path class="fil6" d="M8870.9 5057.12l411.53 1.99c155.68,-196.9 548.49,-587.18 570.68,-846.99 33.45,-391.68 -382.42,-646.27 -767.52,-653.59 -393.67,-7.47 -803.55,269.97 -788.76,634.98 12.99,320.65 460.44,648.56 574.07,863.61z"/>
   <path class="fil7" d="M9561.62 5466.65c308.45,68.02 950.34,328.3 1294.02,171.34 186.82,-85.33 327.36,-188.71 399.35,-369.85 78.71,-198.03 14.03,-453.5 -101.85,-588.19 -224.2,-260.63 -755.43,-359.91 -1116.97,-91.98 -121.16,89.79 -290.02,270.41 -380.84,386.96 -325.39,417.56 -144.71,117.29 -93.71,491.72z"/>
   <path class="fil0" d="M10697.91 15616.08c-272.88,95.23 -325.37,425.3 -93.66,597.07 99.88,74.04 137.54,46.38 255.96,73.04 240.03,54.05 179.85,223.83 241.3,392.06 54.62,149.52 237.06,265.41 430.53,198.16 373.84,-129.94 194.82,-668.58 42.47,-884.27 -119.93,-169.79 -527.94,-497.74 -876.6,-376.06z"/>
   <path class="fil0" d="M7251.43 15622.23c-738.9,180.15 -855.49,908.02 -709.48,1119.38 86.86,125.72 282.11,217.81 465.54,104.66 199.52,-123.07 99.54,-261.41 201.82,-433.95 113.41,-191.31 302.95,-91.23 445.25,-206.29 119.86,-96.92 185.46,-293.75 70.96,-456.54 -104.05,-147.91 -243.11,-183.56 -474.09,-127.26z"/>
   <path class="fil1" d="M9343.75 23399.01l129.02 -2.29 -2.84 1084.21c70.84,3.93 63.23,4.67 114.54,-27.09 0.98,0.61 1.64,2.64 1.84,2.93l36.57 45.03c4.74,-2.29 8.93,-8.68 11.61,-10.73l57.6 -26.33c3.45,-0.27 21.08,5.17 26.71,8.21 21.4,-25.63 10.48,-51.51 13.99,-66.99 -186.32,-173.29 -159.96,-558.61 87.67,-638.69 330.57,-106.92 459.19,160.31 427.46,463.94l85.5 -7.81c-44.95,-204.65 20.99,-242.88 57.6,-364.77 127.08,0 229.29,-8.93 351.06,19.1 0.86,-151.32 30.88,-266.06 105.51,-368.93 39.51,-54.45 59.41,-76.2 117.79,-112.75 54.8,-34.31 111.02,-47.02 150.37,-82.97 -3.54,-40.1 45.65,-65.38 -107.18,-53.6 -4.9,0.38 -10.2,1.83 -14.95,2.41 -4.48,0.53 -9.68,1.99 -14.05,2.59 -19.68,2.72 -28.97,4.08 -40.86,5.45l-48.37 4.9c-177.72,18.18 -724.31,7.47 -941,7.49 -356.96,0.03 -147.99,8.06 -403.28,-38.22 -19.27,58.29 -9.84,9.87 8.58,53.85 20.19,48.25 0.93,-55.67 29.83,42.08 -64.98,-65.03 -166.75,-89.44 -262.04,-32.55 -2.45,1.47 -10.74,10.57 -12.53,6.87 -1.87,-3.85 -8.85,4.48 -13.39,6.47l76.81 38.41c-92.01,0.47 1.18,-12.78 -29.57,39.78z"/>
   <path class="fil1" d="M8386.24 22077.45c37.02,42.53 -30.3,11.19 46.1,33.44 -9.88,-12.2 9.87,-45.62 -40.15,-2.91 -27.01,23.08 -3.47,32.31 0.36,37.44l116.51 61.49c62.54,-49.14 11.98,-8.13 51.54,-58.35l1004.75 -37.55c310.65,-2.3 157.04,23 287.88,76.7l80.97 -51.08 -61.57 -64.65c-143.37,-116.18 -229.56,-186.7 -346.74,-343.6 -123.17,-164.94 -196.29,-297.05 -272.4,-513.8 -145.5,-3.71 -148.38,-14.6 -225.93,-83.92l-118.18 284.23c-193.32,417.4 -467.25,570.72 -523.14,662.56z"/>
   <path class="fil1" d="M6053.01 19452.05c-113.25,18.56 -23.91,13.07 -59.54,-29.59 46.51,-74.08 184.58,-145.65 59.55,-177.23l-78.85 4.5c-148.62,-27.55 37.23,-0.39 -71.06,-64.37 -76.62,30.54 -128.23,75.88 -206.35,114.23 -343.94,168.87 -634.38,154.67 -726.61,199.69 -21.59,375.57 324.22,797.93 619.94,826.14 108.77,-246.03 88,-497.5 462.92,-873.37z"/>
   <path class="fil2" d="M16127.29 22523.74c-55.62,48.03 -43.01,31.08 -64.92,94.92 -56.75,-18.8 -146.37,-93.37 -137.05,21.83l225.91 584.69 113.61 -33.88c-26.93,-166.8 -160.63,-350.96 -169.92,-508.08 82.91,-64.86 103.7,-131.31 252,-128.57 84.02,117.38 146.84,424.51 227.71,512.41l98 -33.4c-13.02,-98.38 -104.51,-290.08 -146.77,-395.39 -35.22,-87.77 -20.21,-119.65 37.76,-173.16 57.21,-52.81 100.73,-81.12 202.29,-63.32 65.54,122.04 155.89,373.16 200.04,504.47l111.32 -28.56c-6,-92.01 -90.34,-275.23 -129.5,-372.33 -67.95,-168.45 -59.18,-252.36 -296.23,-222.09 -109.36,81.66 -126.21,54.42 -195.24,186.21 -77.2,-22.22 -71.52,-52.27 -184.79,-29.04 -61.69,12.66 -103.12,41.66 -144.22,83.29z"/>
   <path class="fil2" d="M7462.1 23886.3c119.87,-61.41 178.12,-87.87 295.66,-28.99 34.77,181.41 -29.5,375.81 -12.23,564.62l117.07 -0.71c20.19,-156.26 -13.42,-385.45 51.14,-511.64 73.35,-47.64 170.99,-80.97 268.86,-32.5 62.66,103.27 -10.26,429.92 1.33,573.11l118.74 4.94c7.45,-116.81 49.11,-503.56 23.33,-587.29 -23.88,-77.6 -111.76,-118.86 -201.57,-120.14 -99.91,-1.42 -159.6,35.38 -229.89,74.5l-81.81 -73.46c-109.51,-65.17 -254.1,-16.74 -346.81,45.2 -56.49,-74.46 2.15,-73.43 -109.08,-73.52 -36.38,89.49 -57.42,550.69 -49.01,672.6l119.9 0.78 34.37 -507.5z"/>
   <path class="fil2" d="M3493.45 23576.36c8.59,-56.67 77.75,-335.82 96.95,-372.85 55.56,-107.12 255.68,-66.13 308.33,22.93 60.99,103.22 38.02,549.63 -405.28,349.92zm-29.67 94.91c102.92,40.57 222.09,106.8 359.09,52.01 375.25,-150.08 279.94,-858.04 -196.34,-640.34 -50.57,-80.96 20.38,-54.88 -72.03,-93.78 -43.75,20.94 -24.86,4.61 -47.91,53.47 -46.35,98.2 -245.59,906.13 -247.53,933.6l109.16 17.14 95.56 -322.1z"/>
   <path class="fil2" d="M12517.67 24075.65c-8.08,-60.78 -66.8,-353.89 -60.58,-388.1 15,-82.56 178.39,-164.36 287.85,-89.61 114.72,78.35 245.97,516.34 -227.27,477.71zm-171.36 -255.63l126.94 719.91 118.77 -13.92 -21.7 -183.47 -27.94 -161.51c291.87,1.09 498.56,-148.22 418.97,-472.89 -82.99,-338.51 -415.62,-296.86 -508.07,-128.54l-75.03 -40.51c-48.82,-16.66 -2.7,-13.38 -76.73,-8.78l44.79 289.71z"/>
   <path class="fil2" d="M9346.15 23902.67c94.85,705.33 -297.2,443.11 -316.73,416.46 -49.66,-67.75 -162.82,-507.96 316.73,-416.46zm123.78 578.26l2.84 -1084.21 -129.02 2.29 9.74 409.41c-150.84,-22.82 -261.28,-46.41 -372.84,41.68 -176.07,139.04 -176.68,533.68 48.69,620.91 151.64,58.7 233.55,-36.4 324.68,-75.88 67.44,77.63 1.17,54.44 115.91,85.8z"/>
   <path class="fil2" d="M11115.75 23313.08c-39.35,35.95 -95.57,48.66 -150.37,82.97 -58.38,36.55 -78.28,58.3 -117.79,112.75 -74.63,102.87 -104.65,217.61 -105.51,368.93 16.04,239.61 97.63,381.25 263.43,459.8 269.86,127.84 420.69,-39.03 573.1,-48.45 -10.27,-151.18 -9.67,-127.97 -120.63,-75.49 -230.93,109.2 -486.47,68 -553.61,-215.17 -40.4,-170.4 -9.05,-363.32 82.98,-465.79 108.39,-120.7 257.5,-105.06 456.46,-110.81l16.69 -81.79c-51.23,-40.92 -143.2,-33.38 -224.42,-32.45l-120.33 5.5z"/>
   <path class="fil8" d="M8958.82 5696.95l189.35 3.76c137.68,-39.1 242.19,-79.63 227.49,-258.47 -20.52,-249.67 -497.58,-277.62 -564.39,-44.51 -59.95,209.17 80.89,236.75 147.55,299.22z"/>
   <path class="fil2" d="M4280.72 23462.43c46.34,-198.82 340.73,-221.67 324.52,75.55l-324.52 -75.55zm327.25 376.9c-123.54,-74.13 -417.85,119.42 -363.88,-288.22 231.43,39.34 388.74,136.77 458.69,49.88 183.93,-255.98 -333.15,-601.35 -537.54,-206.05 -232.03,448.74 252.01,645.39 452.54,501.86l-9.81 -57.47z"/>
   <path class="fil2" d="M6444.69 23714.39c-18.83,-93.9 20.63,-241.67 26.59,-342.99l429.9 44.23 22.52 -101.84 -562.02 -66.05 -125.62 1019.61 120.79 11.81 60 -461.39 398.71 43.03c12.48,-133.84 0.96,-105.36 -146.65,-121.02 -72.74,-7.71 -147.82,-20.76 -224.22,-25.39z"/>
   <path class="fil2" d="M5592.08 23896.93c-108.1,274.32 -462.71,162.69 -339.9,-205.12 103.14,-308.9 488.29,-171.45 339.9,205.12zm137.1 0c160.29,-484.36 -478.8,-657.19 -608.62,-220.69 -69.75,234.55 10.99,405.04 198.52,452.99 236.18,60.4 352.5,-58.25 410.1,-232.3z"/>
   <path class="fil9" d="M12065.6 24088.97c-304.92,311.44 -446.93,-139.27 -10.65,-147.34l10.65 147.34zm-364.5 180.09l49.58 16.26c150.87,45.41 231.02,-7.6 347.57,-117.08 39.73,66.7 16.55,75.7 121.4,66.91l-45.73 -351.63c-23.92,-125.64 -29.09,-452.06 -427.97,-263.66 -83.76,39.56 -112.74,44.81 -65.74,141.19 75.98,-15.4 354.75,-226.85 354.82,88.42 -308.39,49.02 -459.47,141.85 -333.93,419.59z"/>
   <path class="fil2" d="M9881.62 23857.3c284.78,-102.81 319.92,432.09 120.11,499.24 -163.67,55.01 -239,-65.84 -254.36,-197.33 -18.72,-160.12 13.4,-258.28 134.25,-301.91zm-148.83 548.66c78.85,55.07 206.41,77.71 322.75,40.09 128.73,-41.64 155.24,-134.64 192.38,-214.84 31.73,-303.63 -96.89,-570.86 -427.46,-463.94 -247.63,80.08 -273.99,465.4 -87.67,638.69z"/>
   <path class="fil9" d="M13487.83 23679.15l25.6 167.79c-59.07,26.14 -258.47,203.23 -287.19,30.3 -21.91,-131.85 158.71,-186.1 261.59,-198.09zm-270.17 -344.44c-47.22,48.43 -86.64,46.57 -159.04,124.02l43.43 69.88c115.46,-37.58 320.21,-251.83 361.04,63.37 -542.71,108.06 -406.48,505.71 -136.07,460.51 101.75,-17.01 163.4,-98.04 213.42,-140.58l64 52.69c3.63,1.06 10.21,1.59 13.65,2.18l45.72 -4.23c3.2,-85.26 -45.06,-261.94 -64.45,-354.04 -20.82,-98.88 -22.48,-164.34 -88.68,-238.67l-40.97 -43.16c-1.76,-7.18 -7.32,-7.67 -10.76,-11.71 -47.08,8.66 -196.97,21.44 -241.29,19.74z"/>
   <path class="fil2" d="M17177.85 22360.63c-67.94,-328.22 349.73,-353.9 408.2,23.71 45.46,293.57 -332.17,343.5 -408.2,-23.71zm-116.06 -172.73c-100.26,732.22 727.2,640.97 647.29,154.62 -11.7,-71.22 -49.56,-145.04 -81.02,-190.57 -49.06,-71.03 -88.83,-82.5 -137.97,-142.36 -90.91,3.51 -187.14,-11.8 -272.57,33.75 -79.45,42.35 -110,114.62 -155.73,144.56z"/>
   <path class="fil2" d="M2421.93 23230.46l-1.86 -88.59c122.8,-104.35 179.54,-61.17 327.18,-31.22 -19.27,79.51 -19.31,144.16 -101.38,166.06 -94.16,25.15 -157.45,1.07 -223.94,-46.25zm249.67 -530.98c-26.23,-2.98 -71.23,-5.43 -96.99,-2.04l-78.93 28.11 4.39 57.57c118.81,73.46 395.14,-60.77 279,241.46 -179.89,-14.6 -414.56,-110.52 -481.06,95.26 -80.68,249.65 209.98,273.06 373.12,224.93 24.8,40.18 16.38,123.62 87.2,91.22 3.49,-1.6 8.59,-5.51 11.77,-8.1l153.25 -431.26c35.96,-130.37 -4.45,-204.22 -98.77,-253.38 -46.34,-24.15 -95.85,-37.27 -152.98,-43.77z"/>
   <path class="fil9" d="M1248.82 22926.34c122.2,7.81 138.76,43.06 289.28,4.71 3.23,4.75 4.6,12.07 6.23,16.07 1.62,4 4.17,11.2 6.22,15.99 2.3,5.37 9.65,25.49 12.68,30.89 15.89,28.38 -31.24,22.63 36.95,38.61 95.78,22.46 68.01,-168.8 144.72,-230.39l148.16 -384.1 -121.97 -40.9c-19.38,66.45 -164.16,449.37 -210.87,472.03 -104.78,27.97 -209.89,11.99 -271.76,-49.23 -46.98,-123.74 155.41,-403.6 169.1,-554.61l-108.35 -42.13c-197.66,599.3 -301.58,446.23 -100.39,723.06z"/>
   <path class="fil2" d="M1018.73 22783.02l26.38 -101.87 -389.08 -168.75c43.78,-161.41 370.52,-747.3 353.98,-851.42 -80.86,-32.08 -28.61,-23.89 -116.32,-33.36 -7.3,75.02 -152.34,377.44 -195.23,469.53 -63.84,137.06 -155.85,314.88 -199.41,455.52 64.1,51.91 430.01,222.79 519.68,230.35z"/>
   <path class="fil1" d="M17177.85 22360.63c76.03,367.21 453.66,317.28 408.2,23.71 -58.47,-377.61 -476.14,-351.93 -408.2,-23.71z"/>
   <path class="fil1" d="M5592.08 23896.93c148.39,-376.57 -236.76,-514.02 -339.9,-205.12 -122.81,367.81 231.8,479.44 339.9,205.12z"/>
   <path class="fil1" d="M9881.62 23857.3c-120.85,43.63 -152.97,141.79 -134.25,301.91 15.36,131.49 90.69,252.34 254.36,197.33 199.81,-67.15 164.67,-602.05 -120.11,-499.24z"/>
   <path class="fil1" d="M12517.67 24075.65c473.24,38.63 341.99,-399.36 227.27,-477.71 -109.46,-74.75 -272.85,7.05 -287.85,89.61 -6.22,34.21 52.5,327.32 60.58,388.1z"/>
   <path class="fil1" d="M3493.45 23576.36c443.3,199.71 466.27,-246.7 405.28,-349.92 -52.65,-89.06 -252.77,-130.05 -308.33,-22.93 -19.2,37.03 -88.36,316.18 -96.95,372.85z"/>
   <path class="fil2" d="M15551.1 23295.89l-3.38 88.77c200.08,31.71 451.29,-43.15 418.99,-255.02 -37.79,-247.87 -361.31,-77.01 -446.69,-250.5 18.74,-68.11 38.91,-89.55 123.86,-105.06 140.96,-25.71 124.91,32.97 125.56,-109.84 -465.21,-1.89 -415.29,324.71 -255.27,391.92 94.5,39.7 300.6,2.17 330.49,98.48 42.75,137.74 -191.2,130.44 -293.56,141.25z"/>
   <path class="fil1" d="M9346.15 23902.67c-479.55,-91.5 -366.39,348.71 -316.73,416.46 19.53,26.65 411.58,288.87 316.73,-416.46z"/>
   <path class="fil2" d="M1950.25 22862.22c-28.38,97.1 -138.99,304.08 102.82,369.65 38.89,10.54 117.06,20.44 129.98,-26.27 29.12,-105.32 -46.86,-36.86 -154.77,-105.65 -17.41,-99.71 99.48,-378.97 142.94,-466.37 61.99,19.13 146.14,71.26 197.13,34.22l-2.73 -69.39 -158.76 -56.18c22.95,-86.33 60.5,-136.4 58.09,-213.23 -126.75,26.36 -137.98,42.37 -170.63,166.06 -71.07,-12.7 -80.43,-43.66 -107.78,9.64 -34.54,67.32 12.49,23.62 59.27,105.58l-95.56 251.94z"/>
   <path class="fil2" d="M14626.52 22803.08c9.53,53.61 6.37,25.01 -9.68,26.92l14.85 164.56c-43.9,30.45 -98.38,21.06 -64.17,84.85 40.49,75.48 34.88,2.94 104.46,30.17 93.9,279.13 88.87,561 339.21,512.38 116.65,-22.66 148.86,-55.22 116.39,-147.43 -104.46,-0.77 -53.23,51.46 -185.27,34.79 -61.39,-66.58 -136.57,-344.9 -152.1,-455.98 99.27,-25.75 189.2,-15.95 159.22,-116.6 -58.08,-23.8 -112.87,13.99 -198.62,24.84l-83.9 -183.58c-5.19,2.89 -39,24.15 -40.39,25.08z"/>
   <path class="fil2" d="M13775.53 23273.47c-196.27,582.94 335.48,718.52 540.57,487.56l-33.26 -69.93c-61.41,10.74 -307.81,210.33 -409.36,-107.44 -117.17,-366.64 208.34,-310.85 281.9,-339.76l-6.74 -101.75c-121.13,36.54 -182.88,-18.28 -316.18,87.36l-56.93 43.96z"/>
   <polygon class="fil2" points="5107.71,22980.37 4992.91,22957.95 4774.43,24001.23 4887.62,24026.23 "/>
   <path class="fil2" d="M14308.02 23095.84c-5.61,81.88 133.59,589.35 173.4,652.91l89.02 -14.5c22.2,-71.51 -90.71,-468.67 -130.62,-580.97 -41.78,-117.59 -3.55,-42.94 -54.32,-77.89l-77.48 20.45z"/>
   <path class="fil2" d="M7160.39 23686.75l-110.82 -7.58c-37.39,82.52 -83.6,562.92 -72.83,674.53l118.25 -6.3 65.4 -660.65z"/>
   <path class="fil9" d="M15097.02 22858.77c11.19,92.75 172.69,598.69 210.17,648.03l98.1 -27.95c-4.04,-75.11 -153.76,-547.14 -194.13,-637.74l-114.14 17.66z"/>
   <path class="fil1" d="M13487.83 23679.15c-102.88,11.99 -283.5,66.24 -261.59,198.09 28.72,172.93 228.12,-4.16 287.19,-30.3l-25.6 -167.79z"/>
   <path class="fil1" d="M2421.93 23230.46c66.49,47.32 129.78,71.4 223.94,46.25 82.07,-21.9 82.11,-86.55 101.38,-166.06 -147.64,-29.95 -204.38,-73.13 -327.18,31.22l1.86 88.59z"/>
   <path class="fil1" d="M12065.6 24088.97l-10.65 -147.34c-436.28,8.07 -294.27,458.78 10.65,147.34z"/>
   <path class="fil1" d="M4280.72 23462.43l324.52 75.55c16.21,-297.22 -278.18,-274.37 -324.52,-75.55z"/>
   <path class="fil2" d="M7170.56 23519.83c0.03,-0.13 60.4,-39.6 17.85,-106.6 -18.22,-28.67 -64.88,-50.61 -109.73,-25.97 -34.25,18.82 -53.52,70.49 -24.41,118.26 12.61,20.68 24.12,28.62 53.5,32.82 64.7,9.25 61.42,-17.77 62.79,-18.51z"/>
   <path class="fil10" d="M15002.09 22667.8c62.34,61.65 81,54 151.7,24.25 14.72,-121.3 -3.44,-131.33 -115.36,-133.79 -25.93,65.96 -32.92,3.76 -36.34,109.54z"/>
   <path class="fil10" d="M14239.25 22810.26c-58.01,100.86 19.59,176.2 118.79,119.02 35.83,-109.86 -6.74,-160.63 -118.79,-119.02z"/>
  </g>
 </g>
</svg>
